<svg xmlns="http://www.w3.org/2000/svg" height="508.99997" width="757">
    <g stroke-width="1">
        <g font-weight="400" letter-spacing="0" word-spacing="0">
            <text y="78.71817" x="-586.39178" transform="matrix(1.06667 0 0 1.06669 688.873472846 -49.898874008)">
                <tspan y="78.71817" x="-586.39178" font-size="15">1</tspan>
            </text>
            <text y="97.03067" x="-557.72308" transform="matrix(1.06667 0 0 1.06669 688.873472846 -49.898874008)">
                <tspan y="97.03067" x="-557.72308" font-size="15">2</tspan>
            </text>
            <text y="96.94278" x="-528.99945" transform="matrix(1.06667 0 0 1.06669 688.873472846 -49.898874008)">
                <tspan y="96.94278" x="-528.99945" font-size="15">3</tspan>
            </text>
            <text y="78.71817" x="-557.83661" transform="matrix(1.06667 0 0 1.06669 688.873472846 -49.898874008)">
                <tspan y="78.71817" x="-557.83661" font-size="15">1</tspan>
            </text>
            <text y="78.71817" x="-529.28143" transform="matrix(1.06667 0 0 1.06669 688.873472846 -49.898874008)">
                <tspan y="78.71817" x="-529.28143" font-size="15">1</tspan>
            </text>
            <text y="78.71817" x="-500.72626" transform="matrix(1.06667 0 0 1.06669 688.873472846 -49.898874008)">
                <tspan y="78.71817" x="-500.72626" font-size="15">1</tspan>
            </text>
            <text y="78.71817" x="-472.17108" transform="matrix(1.06667 0 0 1.06669 688.873472846 -49.898874008)">
                <tspan y="78.71817" x="-472.17108" font-size="15">1</tspan>
            </text>
            <text y="97.03067" x="-586.39178" transform="matrix(1.06667 0 0 1.06669 688.873472846 -49.898874008)">
                <tspan y="97.03067" x="-586.39178" font-size="15">1</tspan>
            </text>
            <text y="115.34317" x="-586.39178" transform="matrix(1.06667 0 0 1.06669 688.873472846 -49.898874008)">
                <tspan y="115.34317" x="-586.39178" font-size="15">1</tspan>
            </text>
            <text y="133.65567" x="-586.39178" transform="matrix(1.06667 0 0 1.06669 688.873472846 -49.898874008)">
                <tspan y="133.65567" x="-586.39178" font-size="15">1</tspan>
            </text>
            <text y="151.96817" x="-586.39178" transform="matrix(1.06667 0 0 1.06669 688.873472846 -49.898874008)">
                <tspan y="151.96817" x="-586.39178" font-size="15">1</tspan>
            </text>
            <text y="151.96817" x="-557.83661" transform="matrix(1.06667 0 0 1.06669 688.873472846 -49.898874008)">
                <tspan y="151.96817" x="-557.83661" font-size="15">1</tspan>
            </text>
            <text y="151.96817" x="-529.28143" transform="matrix(1.06667 0 0 1.06669 688.873472846 -49.898874008)">
                <tspan y="151.96817" x="-529.28143" font-size="15">1</tspan>
            </text>
            <text y="151.96817" x="-500.72626" transform="matrix(1.06667 0 0 1.06669 688.873472846 -49.898874008)">
                <tspan y="151.96817" x="-500.72626" font-size="15">1</tspan>
            </text>
            <text y="151.96817" x="-472.17108" transform="matrix(1.06667 0 0 1.06669 688.873472846 -49.898874008)">
                <tspan y="151.96817" x="-472.17108" font-size="15">1</tspan>
            </text>
            <text y="97.03067" x="-472.17108" transform="matrix(1.06667 0 0 1.06669 688.873472846 -49.898874008)">
                <tspan y="97.03067" x="-472.17108" font-size="15">1</tspan>
            </text>
            <text y="115.34317" x="-472.17108" transform="matrix(1.06667 0 0 1.06669 688.873472846 -49.898874008)">
                <tspan y="115.34317" x="-472.17108" font-size="15">1</tspan>
            </text>
            <text y="133.65567" x="-472.17108" transform="matrix(1.06667 0 0 1.06669 688.873472846 -49.898874008)">
                <tspan y="133.65567" x="-472.17108" font-size="15">1</tspan>
            </text>
            <text y="115.25528" x="-528.99945" transform="matrix(1.06667 0 0 1.06669 688.873472846 -49.898874008)">
                <tspan y="115.25528" x="-528.99945" font-size="15">3</tspan>
            </text>
            <text y="133.56778" x="-528.99945" transform="matrix(1.06667 0 0 1.06669 688.873472846 -49.898874008)">
                <tspan y="133.56778" x="-528.99945" font-size="15">3</tspan>
            </text>
            <text y="115.25528" x="-557.55463" transform="matrix(1.06667 0 0 1.06669 688.873472846 -49.898874008)">
                <tspan y="115.25528" x="-557.55463" font-size="15">3</tspan>
            </text>
            <text y="115.25528" x="-500.44427" transform="matrix(1.06667 0 0 1.06669 688.873472846 -49.898874008)">
                <tspan y="115.25528" x="-500.44427" font-size="15">3</tspan>
            </text>
            <text y="133.65567" x="-557.72308" transform="matrix(1.06667 0 0 1.06669 688.873472846 -49.898874008)">
                <tspan y="133.65567" x="-557.72308" font-size="15">2</tspan>
            </text>
            <text y="133.65567" x="-500.61273" transform="matrix(1.06667 0 0 1.06669 688.873472846 -49.898874008)">
                <tspan y="133.65567" x="-500.61273" font-size="15">2</tspan>
            </text>
            <text y="97.03067" x="-500.61273" transform="matrix(1.06667 0 0 1.06669 688.873472846 -49.898874008)">
                <tspan y="97.03067" x="-500.61273" font-size="15">2</tspan>
            </text>
        </g>
        <g stroke="#6f8a91" stroke-width="1.25" fill="none">
            <path d="M100 0v500M200 0v500M300 0v500M400 0v500" transform="matrix(.30373 0 0 .20014 52.333989807 17.69590506)"/>
            <g>
                <path d="M0 100h500M0 200h500M0 300h500M0 400h500" transform="matrix(.30373 0 0 .20014 52.333989807 17.69590506)"/>
            </g>
            <path d="M0 0h500v500H0z" transform="matrix(.30373 0 0 .20014 52.333989807 17.69590506)"/>
        </g>
    </g>
    <g stroke-width="1">
        <g font-weight="400" letter-spacing="0" word-spacing="0">
            <text y="82.629654" x="-322.08691" transform="matrix(1.06667 0 0 1.06669 759.090813707 4.529968182)">
                <tspan y="82.629654" x="-322.08691" font-size="15">1</tspan>
            </text>
            <text y="64.317154" x="-350.51025" transform="matrix(1.06667 0 0 1.06669 759.090813707 4.529968182)">
                <tspan y="64.317154" x="-350.51025" font-size="15">1</tspan>
            </text>
            <text y="82.629654" x="-378.93359" transform="matrix(1.06667 0 0 1.06669 759.090813707 4.529968182)">
                <tspan y="82.629654" x="-378.93359" font-size="15">1</tspan>
            </text>
            <text y="64.317154" x="-322.08691" transform="matrix(1.06667 0 0 1.06669 759.090813707 4.529968182)">
                <tspan y="64.317154" x="-322.08691" font-size="15">1</tspan>
            </text>
            <text y="82.629654" x="-350.51025" transform="matrix(1.06667 0 0 1.06669 759.090813707 4.529968182)">
                <tspan y="82.629654" x="-350.51025" font-size="15">1</tspan>
            </text>
            <text y="64.317154" x="-378.93359" transform="matrix(1.06667 0 0 1.06669 759.090813707 4.529968182)">
                <tspan y="64.317154" x="-378.93359" font-size="15">1</tspan>
            </text>
            <text y="46.004654" x="-378.93359" transform="matrix(1.06667 0 0 1.06669 759.090813707 4.529968182)">
                <tspan y="46.004654" x="-378.93359" font-size="15">1</tspan>
            </text>
            <text y="46.004654" x="-350.51025" transform="matrix(1.06667 0 0 1.06669 759.090813707 4.529968182)">
                <tspan y="46.004654" x="-350.51025" font-size="15">1</tspan>
            </text>
            <text y="46.004654" x="-322.08691" transform="matrix(1.06667 0 0 1.06669 759.090813707 4.529968182)">
                <tspan y="46.004654" x="-322.08691" font-size="15">1</tspan>
            </text>
            <text y="27.604261" x="-407.39722" transform="matrix(1.06667 0 0 1.06669 759.090813707 4.529968182)">
                <tspan y="27.604261" x="-407.39722" font-size="15">0</tspan>
            </text>
            <text y="27.604261" x="-378.97388" transform="matrix(1.06667 0 0 1.06669 759.090813707 4.529968182)">
                <tspan y="27.604261" x="-378.97388" font-size="15">0</tspan>
            </text>
            <text y="27.604261" x="-350.55054" transform="matrix(1.06667 0 0 1.06669 759.090813707 4.529968182)">
                <tspan y="27.604261" x="-350.55054" font-size="15">0</tspan>
            </text>
            <text y="27.604261" x="-322.1272" transform="matrix(1.06667 0 0 1.06669 759.090813707 4.529968182)">
                <tspan y="27.604261" x="-322.1272" font-size="15">0</tspan>
            </text>
            <text y="27.604261" x="-293.70386" transform="matrix(1.06667 0 0 1.06669 759.090813707 4.529968182)">
                <tspan y="27.604261" x="-293.70386" font-size="15">0</tspan>
            </text>
            <text y="45.916763" x="-407.39722" transform="matrix(1.06667 0 0 1.06669 759.090813707 4.529968182)">
                <tspan y="45.916763" x="-407.39722" font-size="15">0</tspan>
            </text>
            <text y="64.229263" x="-407.39722" transform="matrix(1.06667 0 0 1.06669 759.090813707 4.529968182)">
                <tspan y="64.229263" x="-407.39722" font-size="15">0</tspan>
            </text>
            <text y="64.229263" x="-293.70386" transform="matrix(1.06667 0 0 1.06669 759.090813707 4.529968182)">
                <tspan y="64.229263" x="-293.70386" font-size="15">0</tspan>
            </text>
            <text y="100.85426" x="-407.39722" transform="matrix(1.06667 0 0 1.06669 759.090813707 4.529968182)">
                <tspan y="100.85426" x="-407.39722" font-size="15">0</tspan>
            </text>
            <text y="100.85426" x="-378.97388" transform="matrix(1.06667 0 0 1.06669 759.090813707 4.529968182)">
                <tspan y="100.85426" x="-378.97388" font-size="15">0</tspan>
            </text>
            <text y="100.85426" x="-350.55054" transform="matrix(1.06667 0 0 1.06669 759.090813707 4.529968182)">
                <tspan y="100.85426" x="-350.55054" font-size="15">0</tspan>
            </text>
            <text y="100.85426" x="-322.1272" transform="matrix(1.06667 0 0 1.06669 759.090813707 4.529968182)">
                <tspan y="100.85426" x="-322.1272" font-size="15">0</tspan>
            </text>
            <text y="100.85426" x="-293.70386" transform="matrix(1.06667 0 0 1.06669 759.090813707 4.529968182)">
                <tspan y="100.85426" x="-293.70386" font-size="15">0</tspan>
            </text>
            <text y="82.541763" x="-293.70386" transform="matrix(1.06667 0 0 1.06669 759.090813707 4.529968182)">
                <tspan y="82.541763" x="-293.70386" font-size="15">0</tspan>
            </text>
            <text y="82.541763" x="-407.39722" transform="matrix(1.06667 0 0 1.06669 759.090813707 4.529968182)">
                <tspan y="82.541763" x="-407.39722" font-size="15">0</tspan>
            </text>
            <text y="45.916763" x="-293.70386" transform="matrix(1.06667 0 0 1.06669 759.090813707 4.529968182)">
                <tspan y="45.916763" x="-293.70386" font-size="15">0</tspan>
            </text>
        </g>
        <g stroke="#6f8a91" stroke-width="1.25" fill="none">
            <path d="M100 0v500M200 0v500M300 0v500M400 0v500" transform="matrix(.30373 0 0 .20014 313.240593908 17.695908296)"/>
            <g>
                <path d="M0 100h500M0 200h500M0 300h500M0 400h500" transform="matrix(.30373 0 0 .20014 313.240593908 17.695908296)"/>
            </g>
            <path d="M0 0h500v500H0z" transform="matrix(.30373 0 0 .20014 313.240593908 17.695908296)"/>
        </g>
    </g>
    <g stroke-width="1">
        <g stroke="#b5e61d" stroke-width="8" fill="none">
            <path d="M100 0v400M200 0v400M300 0v400" transform="matrix(.30854 0 0 .19656 580.62226887 28.417803206)"/>
            <g>
                <path d="M0 100h400M0 200h400M0 300h400" transform="matrix(.30854 0 0 .19656 580.62226887 28.417803206)"/>
            </g>
            <path d="M0 0h400v400H0z" transform="matrix(.30854 0 0 .19656 580.62226887 28.417803206)"/>
        </g>
        <g stroke="#6f8a91" stroke-width="1.25" fill="none">
            <path d="M100 0v500M200 0v500M300 0v500M400 0v500" transform="matrix(.30373 0 0 .20014 566.396380426 17.69590664)"/>
            <g>
                <path d="M0 100h500M0 200h500M0 300h500M0 400h500" transform="matrix(.30373 0 0 .20014 566.396380426 17.69590664)"/>
            </g>
            <path d="M0 0h500v500H0z" transform="matrix(.30373 0 0 .20014 566.396380426 17.69590664)"/>
        </g>
        <g transform="matrix(1.06667 0 0 1.06669 872.75335 71.09834)">
            <circle r="4.149951" cy="-40.032612" cx="-273.89676"/>
            <circle r="4.149951" cy="-40.032612" cx="-244.99686"/>
            <circle r="4.149951" cy="-40.032612" cx="-216.09695"/>
            <circle r="4.149951" cy="-40.032612" cx="-187.19705"/>
            <circle r="4.149951" cy="-40.032612" cx="-158.29715"/>
            <circle r="4.149951" cy="-21.63271" cx="-273.89676"/>
            <circle r="4.149951" cy="-3.2328079" cx="-273.89676"/>
            <circle r="4.149951" cy="15.167094" cx="-273.89676"/>
            <circle r="4.149951" cy="33.566998" cx="-273.89676"/>
            <circle r="4.149951" cy="33.566998" cx="-244.99686"/>
            <circle r="4.149951" cy="33.566998" cx="-216.09695" stroke="#6f8a91" stroke-width=".281247" stroke-linejoin="bevel"/>
            <circle r="4.149951" cy="33.566998" cx="-187.19705"/>
            <circle r="4.149951" cy="33.566998" cx="-158.29715" stroke="#6f8a91" stroke-width=".281247" stroke-linejoin="bevel"/>
            <circle r="4.149951" cy="15.167094" cx="-158.29715"/>
            <circle r="4.149951" cy="-3.2328079" cx="-158.29715"/>
            <circle r="4.149951" cy="-21.63271" cx="-158.29715"/>
            <circle r="4.149951" cy="-21.63271" cx="-244.99686" fill="#fff" stroke="#000" stroke-width=".562494" stroke-linejoin="bevel"/>
            <circle r="4.149951" cy="-3.2328079" cx="-244.99686" fill="#fff" stroke="#000" stroke-width=".562494" stroke-linejoin="bevel"/>
            <circle r="4.149951" cy="15.167094" cx="-244.99686" fill="#fff" stroke="#000" stroke-width=".562494" stroke-linejoin="bevel"/>
            <circle r="4.149951" cy="-21.63271" cx="-216.09695" fill="#fff" stroke="#000" stroke-width=".562494" stroke-linejoin="bevel"/>
            <circle r="4.149951" cy="-3.2328079" cx="-216.09695" fill="#fff" stroke="#000" stroke-width=".562494" stroke-linejoin="bevel"/>
            <circle r="4.149951" cy="15.167094" cx="-216.09695" fill="#fff" stroke="#000" stroke-width=".562494" stroke-linejoin="bevel"/>
            <circle r="4.149951" cy="-21.63271" cx="-187.19705" fill="#fff" stroke="#000" stroke-width=".562494" stroke-linejoin="bevel"/>
            <circle r="4.149951" cy="-3.2328079" cx="-187.19705" fill="#fff" stroke="#000" stroke-width=".562494" stroke-linejoin="bevel"/>
            <circle r="4.149951" cy="15.167094" cx="-187.19705" fill="#fff" stroke="#000" stroke-width=".562494" stroke-linejoin="bevel"/>
        </g>
    </g>
    <g stroke-width="1">
        <g stroke="#b5e61d" stroke-width="8" fill="none">
            <path d="M100 0v400M200 0v400M300 0v400" transform="matrix(.30854 0 0 .19656 251.84900618 165.430325045)"/>
            <g>
                <path d="M0 100h400M0 200h400M0 300h400" transform="matrix(.30854 0 0 .19656 251.84900618 165.430325045)"/>
            </g>
            <path d="M0 0h400v400H0z" transform="matrix(.30854 0 0 .19656 251.84900618 165.430325045)"/>
        </g>
        <g stroke="#6f8a91" stroke-width="1.25" fill="none">
            <path d="M100 0v500M200 0v500M300 0v500M400 0v500" transform="matrix(.30373 0 0 .20014 237.623117736 154.708428478)"/>
            <g>
                <path d="M0 100h500M0 200h500M0 300h500M0 400h500" transform="matrix(.30373 0 0 .20014 237.623117736 154.708428478)"/>
            </g>
            <path d="M0 0h500v500H0z" transform="matrix(.30373 0 0 .20014 237.623117736 154.708428478)"/>
        </g>
        <g transform="matrix(1.06667 0 0 1.06669 543.98008731 208.110861839)">
            <circle cx="-273.89676" cy="-40.032612" r="4.149951"/>
            <circle cx="-244.99686" cy="-40.032612" r="4.149951"/>
            <circle cx="-216.09695" cy="-40.032612" r="4.149951"/>
            <circle cx="-187.19705" cy="-40.032612" r="4.149951"/>
            <circle cx="-158.29715" cy="-40.032612" r="4.149951"/>
            <circle cx="-273.89676" cy="-21.63271" r="4.149951"/>
            <circle cx="-273.89676" cy="-3.2328079" r="4.149951"/>
            <circle cx="-273.89676" cy="15.167094" r="4.149951"/>
            <circle cx="-273.89676" cy="33.566998" r="4.149951"/>
            <circle cx="-244.99686" cy="33.566998" r="4.149951"/>
            <circle cx="-216.09695" cy="33.566998" r="4.149951" stroke="#6f8a91" stroke-width=".281247" stroke-linejoin="bevel"/>
            <circle cx="-187.19705" cy="33.566998" r="4.149951"/>
            <circle cx="-158.29715" cy="33.566998" r="4.149951" stroke="#6f8a91" stroke-width=".281247" stroke-linejoin="bevel"/>
            <circle cx="-158.29715" cy="15.167094" r="4.149951"/>
            <circle cx="-158.29715" cy="-3.2328079" r="4.149951"/>
            <circle cx="-158.29715" cy="-21.63271" r="4.149951"/>
            <circle cx="-244.99686" cy="-21.63271" r="4.149951" fill="#fff" stroke="#000" stroke-width=".562494" stroke-linejoin="bevel"/>
            <circle cx="-244.99686" cy="-3.2328079" r="4.149951" fill="#fff" stroke="#000" stroke-width=".562494" stroke-linejoin="bevel"/>
            <circle cx="-244.99686" cy="15.167094" r="4.149951" fill="#fff" stroke="#000" stroke-width=".562494" stroke-linejoin="bevel"/>
            <circle cx="-216.09695" cy="-21.63271" r="4.149951" fill="#fff" stroke="#000" stroke-width=".562494" stroke-linejoin="bevel"/>
            <circle cx="-216.09695" cy="-3.2328079" r="4.149951" fill="#fff" stroke="#000" stroke-width=".562494" stroke-linejoin="bevel"/>
            <circle cx="-216.09695" cy="15.167094" r="4.149951" fill="#fff" stroke="#000" stroke-width=".562494" stroke-linejoin="bevel"/>
            <circle cx="-187.19705" cy="-21.63271" r="4.149951" fill="#fff" stroke="#000" stroke-width=".562494" stroke-linejoin="bevel"/>
            <circle cx="-187.19705" cy="-3.2328079" r="4.149951" fill="#fff" stroke="#000" stroke-width=".562494" stroke-linejoin="bevel"/>
            <circle cx="-187.19705" cy="15.167094" r="4.149951" fill="#fff" stroke="#000" stroke-width=".562494" stroke-linejoin="bevel"/>
        </g>
        <text x="-357.69574" y="175.65033" font-weight="400" letter-spacing="0" word-spacing="0" fill="#555dd0" transform="matrix(1.06667 0 0 1.06669 638.60439 -11.01879)">
            <tspan x="-357.69574" y="175.65033" font-size="12.5">13</tspan>
        </text>
        <text x="-328.40649" y="175.72357" font-weight="400" letter-spacing="0" word-spacing="0" fill="#555dd0" transform="matrix(1.06667 0 0 1.06669 638.60439 -11.01879)">
            <tspan x="-328.40649" y="175.72357" font-size="12.5">12</tspan>
        </text>
        <text x="-300.41626" y="175.72357" font-weight="400" letter-spacing="0" word-spacing="0" fill="#555dd0" transform="matrix(1.06667 0 0 1.06669 638.60439 -11.01879)">
            <tspan x="-300.41626" y="175.72357" font-size="12.5">12</tspan>
        </text>
        <text x="-271.94409" y="175.72357" font-weight="400" letter-spacing="0" word-spacing="0" fill="#555dd0" transform="matrix(1.06667 0 0 1.06669 638.60439 -11.01879)">
            <tspan x="-271.94409" y="175.72357" font-size="12.5">14</tspan>
        </text>
        <text x="-356.72528" y="192.86667" font-weight="400" letter-spacing="0" word-spacing="0" fill="#555dd0" transform="matrix(1.06667 0 0 1.06669 638.60439 -11.01879)">
            <tspan x="-356.72528" y="192.86667" font-size="12.5">9</tspan>
        </text>
        <text x="-327.39331" y="192.87888" font-weight="400" letter-spacing="0" word-spacing="0" fill="#555dd0" transform="matrix(1.06667 0 0 1.06669 638.60439 -11.01879)">
            <tspan x="-327.39331" y="192.87888" font-size="12.5">0</tspan>
        </text>
        <text x="-299.40308" y="192.87888" font-weight="400" letter-spacing="0" word-spacing="0" fill="#555dd0" transform="matrix(1.06667 0 0 1.06669 638.60439 -11.01879)">
            <tspan x="-299.40308" y="192.87888" font-size="12.5">0</tspan>
        </text>
        <text x="-271.01636" y="192.87888" font-weight="400" letter-spacing="0" word-spacing="0" fill="#555dd0" transform="matrix(1.06667 0 0 1.06669 638.60439 -11.01879)">
            <tspan x="-271.01636" y="192.87888" font-size="12.5">6</tspan>
        </text>
        <text x="-356.72528" y="210.47342" font-weight="400" letter-spacing="0" word-spacing="0" fill="#555dd0" transform="matrix(1.06667 0 0 1.06669 638.60439 -11.01879)">
            <tspan x="-356.72528" y="210.47342" font-size="12.5">9</tspan>
        </text>
        <text x="-357.69574" y="230.972" font-weight="400" letter-spacing="0" word-spacing="0" fill="#555dd0" transform="matrix(1.06667 0 0 1.06669 638.60439 -11.01879)">
            <tspan x="-357.69574" y="230.972" font-size="12.5">11</tspan>
        </text>
        <text x="-327.39331" y="210.48563" font-weight="400" letter-spacing="0" word-spacing="0" fill="#555dd0" transform="matrix(1.06667 0 0 1.06669 638.60439 -11.01879)">
            <tspan x="-327.39331" y="210.48563" font-size="12.5">0</tspan>
        </text>
        <text x="-327.44824" y="230.89876" font-weight="400" letter-spacing="0" word-spacing="0" fill="#555dd0" transform="matrix(1.06667 0 0 1.06669 638.60439 -11.01879)">
            <tspan x="-327.44824" y="230.89876" font-size="12.5">3</tspan>
        </text>
        <text x="-299.40308" y="210.48563" font-weight="400" letter-spacing="0" word-spacing="0" fill="#555dd0" transform="matrix(1.06667 0 0 1.06669 638.60439 -11.01879)">
            <tspan x="-299.40308" y="210.48563" font-size="12.5">0</tspan>
        </text>
        <text x="-299.45801" y="230.89876" font-weight="400" letter-spacing="0" word-spacing="0" fill="#555dd0" transform="matrix(1.06667 0 0 1.06669 638.60439 -11.01879)">
            <tspan x="-299.45801" y="230.89876" font-size="12.5">3</tspan>
        </text>
        <text x="-270.94312" y="230.8011" font-weight="400" letter-spacing="0" word-spacing="0" fill="#555dd0" transform="matrix(1.06667 0 0 1.06669 638.60439 -11.01879)">
            <tspan x="-270.94312" y="230.8011" font-size="12.5">7</tspan>
        </text>
        <text x="-271.01636" y="210.48563" font-weight="400" letter-spacing="0" word-spacing="0" fill="#555dd0" transform="matrix(1.06667 0 0 1.06669 638.60439 -11.01879)">
            <tspan x="-271.01636" y="210.48563" font-size="12.5">6</tspan>
        </text>
    </g>
    <g stroke-width="1">
        <path d="M-74.69912 526.91418l-15.00388 9.25793v36.39188l14.046199 9.89519h57.780089L-3.511 572.24476v-36.07265l-13.408031-9.25793z" fill="none" stroke="#00a2e8" stroke-width="1.87498" transform="matrix(1.06667 0 0 1.06669 363.270946 -274.08421)"/>
        <g stroke="#b5e61d" stroke-width="8" fill="none">
            <path d="M100 0v400M200 0v400M300 0v400" transform="matrix(.30854 0 0 .19656 251.849001185 277.941429759)"/>
            <g>
                <path d="M0 100h400M0 200h400M0 300h400" transform="matrix(.30854 0 0 .19656 251.849001185 277.941429759)"/>
            </g>
            <path d="M0 0h400v400H0z" transform="matrix(.30854 0 0 .19656 251.849001185 277.941429759)"/>
        </g>
        <g stroke="#6f8a91" stroke-width="1.25" fill="none">
            <path d="M100 0v500M200 0v500M300 0v500M400 0v500" transform="matrix(.30373 0 0 .20014 237.62311274 267.219533192)"/>
            <g>
                <path d="M0 100h500M0 200h500M0 300h500M0 400h500" transform="matrix(.30373 0 0 .20014 237.62311274 267.219533192)"/>
            </g>
            <path d="M0 0h500v500H0z" transform="matrix(.30373 0 0 .20014 237.62311274 267.219533192)"/>
        </g>
        <g transform="matrix(1.06667 0 0 1.06669 543.980082314 320.621966552)">
            <circle cx="-273.89676" cy="-40.032612" r="4.149951"/>
            <circle cx="-244.99686" cy="-40.032612" r="4.149951"/>
            <circle cx="-216.09695" cy="-40.032612" r="4.149951"/>
            <circle cx="-187.19705" cy="-40.032612" r="4.149951"/>
            <circle cx="-158.29715" cy="-40.032612" r="4.149951"/>
            <circle cx="-273.89676" cy="-21.63271" r="4.149951"/>
            <circle cx="-273.89676" cy="-3.2328079" r="4.149951"/>
            <circle cx="-273.89676" cy="15.167094" r="4.149951"/>
            <circle cx="-273.89676" cy="33.566998" r="4.149951"/>
            <circle cx="-244.99686" cy="33.566998" r="4.149951"/>
            <circle cx="-216.09695" cy="33.566998" r="4.149951" stroke="#6f8a91" stroke-width=".281247" stroke-linejoin="bevel"/>
            <circle cx="-187.19705" cy="33.566998" r="4.149951"/>
            <circle cx="-158.29715" cy="33.566998" r="4.149951" stroke="#6f8a91" stroke-width=".281247" stroke-linejoin="bevel"/>
            <circle cx="-158.29715" cy="15.167094" r="4.149951"/>
            <circle cx="-158.29715" cy="-3.2328079" r="4.149951"/>
            <circle cx="-158.29715" cy="-21.63271" r="4.149951"/>
            <circle cx="-244.99686" cy="-21.63271" r="4.149951" fill="#fff" stroke="#000" stroke-width=".562494" stroke-linejoin="bevel"/>
            <circle cx="-244.99686" cy="-3.2328079" r="4.149951" fill="#fff" stroke="#000" stroke-width=".562494" stroke-linejoin="bevel"/>
            <circle cx="-244.99686" cy="15.167094" r="4.149951" fill="#fff" stroke="#000" stroke-width=".562494" stroke-linejoin="bevel"/>
            <circle cx="-216.09695" cy="-21.63271" r="4.149951" fill="#fff" stroke="#000" stroke-width=".562494" stroke-linejoin="bevel"/>
            <circle cx="-216.09695" cy="-3.2328079" r="4.149951" fill="#fff" stroke="#000" stroke-width=".562494" stroke-linejoin="bevel"/>
            <circle cx="-216.09695" cy="15.167094" r="4.149951" fill="#fff" stroke="#000" stroke-width=".562494" stroke-linejoin="bevel"/>
            <circle cx="-187.19705" cy="-21.63271" r="4.149951" fill="#fff" stroke="#000" stroke-width=".562494" stroke-linejoin="bevel"/>
            <circle cx="-187.19705" cy="-3.2328079" r="4.149951" fill="#fff" stroke="#000" stroke-width=".562494" stroke-linejoin="bevel"/>
            <circle cx="-187.19705" cy="15.167094" r="4.149951" fill="#fff" stroke="#000" stroke-width=".562494" stroke-linejoin="bevel"/>
        </g>
    </g>
    <g stroke-width="1">
        <g font-weight="400" letter-spacing="0" word-spacing="0">
            <text x="-586.39178" y="78.71817" transform="matrix(1.06667 0 0 1.06669 874.162595374 312.135851586)">
                <tspan x="-586.39178" y="78.71817" font-size="15">1</tspan>
            </text>
            <text x="-557.72308" y="97.03067" transform="matrix(1.06667 0 0 1.06669 874.162595374 312.135851586)">
                <tspan x="-557.72308" y="97.03067" font-size="15">2</tspan>
            </text>
            <text x="-528.99945" y="96.94278" transform="matrix(1.06667 0 0 1.06669 874.162595374 312.135851586)">
                <tspan x="-528.99945" y="96.94278" font-size="15">3</tspan>
            </text>
            <text x="-557.83661" y="78.71817" transform="matrix(1.06667 0 0 1.06669 874.162595374 312.135851586)">
                <tspan x="-557.83661" y="78.71817" font-size="15">1</tspan>
            </text>
            <text x="-529.28143" y="78.71817" transform="matrix(1.06667 0 0 1.06669 874.162595374 312.135851586)">
                <tspan x="-529.28143" y="78.71817" font-size="15">1</tspan>
            </text>
            <text x="-500.72626" y="78.71817" transform="matrix(1.06667 0 0 1.06669 874.162595374 312.135851586)">
                <tspan x="-500.72626" y="78.71817" font-size="15">1</tspan>
            </text>
            <text x="-472.17108" y="78.71817" transform="matrix(1.06667 0 0 1.06669 874.162595374 312.135851586)">
                <tspan x="-472.17108" y="78.71817" font-size="15">1</tspan>
            </text>
            <text x="-586.39178" y="97.03067" transform="matrix(1.06667 0 0 1.06669 874.162595374 312.135851586)">
                <tspan x="-586.39178" y="97.03067" font-size="15">1</tspan>
            </text>
            <text x="-586.39178" y="115.34317" transform="matrix(1.06667 0 0 1.06669 874.162595374 312.135851586)">
                <tspan x="-586.39178" y="115.34317" font-size="15">1</tspan>
            </text>
            <text x="-586.39178" y="133.65567" transform="matrix(1.06667 0 0 1.06669 874.162595374 312.135851586)">
                <tspan x="-586.39178" y="133.65567" font-size="15">1</tspan>
            </text>
            <text x="-586.39178" y="151.96817" transform="matrix(1.06667 0 0 1.06669 874.162595374 312.135851586)">
                <tspan x="-586.39178" y="151.96817" font-size="15">1</tspan>
            </text>
            <text x="-557.83661" y="151.96817" transform="matrix(1.06667 0 0 1.06669 874.162595374 312.135851586)">
                <tspan x="-557.83661" y="151.96817" font-size="15">1</tspan>
            </text>
            <text x="-529.28143" y="151.96817" transform="matrix(1.06667 0 0 1.06669 874.162595374 312.135851586)">
                <tspan x="-529.28143" y="151.96817" font-size="15">1</tspan>
            </text>
            <text x="-500.72626" y="151.96817" transform="matrix(1.06667 0 0 1.06669 874.162595374 312.135851586)">
                <tspan x="-500.72626" y="151.96817" font-size="15">1</tspan>
            </text>
            <text x="-472.17108" y="151.96817" transform="matrix(1.06667 0 0 1.06669 874.162595374 312.135851586)">
                <tspan x="-472.17108" y="151.96817" font-size="15">1</tspan>
            </text>
            <text x="-472.17108" y="97.03067" transform="matrix(1.06667 0 0 1.06669 874.162595374 312.135851586)">
                <tspan x="-472.17108" y="97.03067" font-size="15">1</tspan>
            </text>
            <text x="-472.17108" y="115.34317" transform="matrix(1.06667 0 0 1.06669 874.162595374 312.135851586)">
                <tspan x="-472.17108" y="115.34317" font-size="15">1</tspan>
            </text>
            <text x="-472.17108" y="133.65567" transform="matrix(1.06667 0 0 1.06669 874.162595374 312.135851586)">
                <tspan x="-472.17108" y="133.65567" font-size="15">1</tspan>
            </text>
            <text x="-528.99945" y="115.25528" transform="matrix(1.06667 0 0 1.06669 874.162595374 312.135851586)">
                <tspan x="-528.99945" y="115.25528" font-size="15">3</tspan>
            </text>
            <text x="-528.99945" y="133.56778" transform="matrix(1.06667 0 0 1.06669 874.162595374 312.135851586)">
                <tspan x="-528.99945" y="133.56778" font-size="15">3</tspan>
            </text>
            <text x="-557.55463" y="115.25528" transform="matrix(1.06667 0 0 1.06669 874.162595374 312.135851586)">
                <tspan x="-557.55463" y="115.25528" font-size="15">3</tspan>
            </text>
            <text x="-500.44427" y="115.25528" transform="matrix(1.06667 0 0 1.06669 874.162595374 312.135851586)">
                <tspan x="-500.44427" y="115.25528" font-size="15">3</tspan>
            </text>
            <text x="-557.72308" y="133.65567" transform="matrix(1.06667 0 0 1.06669 874.162595374 312.135851586)">
                <tspan x="-557.72308" y="133.65567" font-size="15">2</tspan>
            </text>
            <text x="-500.61273" y="133.65567" transform="matrix(1.06667 0 0 1.06669 874.162595374 312.135851586)">
                <tspan x="-500.61273" y="133.65567" font-size="15">2</tspan>
            </text>
            <text x="-500.61273" y="97.03067" transform="matrix(1.06667 0 0 1.06669 874.162595374 312.135851586)">
                <tspan x="-500.61273" y="97.03067" font-size="15">2</tspan>
            </text>
        </g>
        <g stroke="#6f8a91" stroke-width="1.25" fill="none">
            <path d="M100 0v500M200 0v500M300 0v500M400 0v500" transform="matrix(.30373 0 0 .20014 237.623112335 379.730630654)"/>
            <g>
                <path d="M0 100h500M0 200h500M0 300h500M0 400h500" transform="matrix(.30373 0 0 .20014 237.623112335 379.730630654)"/>
            </g>
            <path d="M0 0h500v500H0z" transform="matrix(.30373 0 0 .20014 237.623112335 379.730630654)"/>
        </g>
        <path d="M-76.773509 869.16082c-5.65365 1.60388-12.14026 4.12608-15.00388 9.25793-5.91101 10.59302-5.58592 25.62389 0 36.39188 2.63728 5.08389 8.58651 8.16518 14.0462 9.89519 18.36032 5.81784 39.43251 5.85791 57.78009 0 5.59728-1.78707 11.6714799-4.9929 14.3657096-10.21442 5.51360996-10.68559 5.58711996-25.42531 0-36.07265-2.52365-4.80931-8.2228396-7.64172-13.4080296-9.25793-18.38751-5.73133-39.25123-5.25643-57.78009 0z" fill="none" stroke="#00a2e8" stroke-width="1.87498" transform="matrix(1.06667 0 0 1.06669 365.564279 -527.12021)"/>
    </g>
    <g stroke-width="1" font-weight="400" letter-spacing="0" word-spacing="0" text-anchor="middle">
        <text y="230.69385" x="288.67941" style="text-align:center" transform="matrix(1.06667 0 0 1.06669 211.24324 9.92164)">
            <tspan y="230.69385" x="269.06882" font-size="15">Case 0</tspan>
        </text>
        <text style="text-align:center" x="354.30441" y="230.69385" transform="matrix(1.06667 0 0 1.06669 211.24324 9.92164)">
            <tspan x="334.69382" y="230.69385" font-size="15">Case 1</tspan>
        </text>
        <text y="230.69385" x="419.92941" style="text-align:center" transform="matrix(1.06667 0 0 1.06669 211.24324 9.92164)">
            <tspan y="230.69385" x="400.31882" font-size="15">Case 2</tspan>
        </text>
        <text style="text-align:center" x="485.55441" y="230.69385" transform="matrix(1.06667 0 0 1.06669 211.24324 9.92164)">
            <tspan x="465.94382" y="230.69385" font-size="15">Case 3</tspan>
        </text>
        <text style="text-align:center" x="288.67941" y="296.31754" transform="matrix(1.06667 0 0 1.06669 211.24324 9.92164)">
            <tspan x="269.06882" y="296.31754" font-size="15">Case 4</tspan>
        </text>
        <text y="296.31754" x="354.30441" style="text-align:center" transform="matrix(1.06667 0 0 1.06669 211.24324 9.92164)">
            <tspan y="296.31754" x="334.69382" font-size="15">Case 5</tspan>
        </text>
        <text style="text-align:center" x="419.92941" y="296.31754" transform="matrix(1.06667 0 0 1.06669 211.24324 9.92164)">
            <tspan x="400.31882" y="296.31754" font-size="15">Case 6</tspan>
        </text>
        <text y="296.31754" x="485.55441" style="text-align:center" transform="matrix(1.06667 0 0 1.06669 211.24324 9.92164)">
            <tspan y="296.31754" x="465.94382" font-size="15">Case 7</tspan>
        </text>
        <text y="361.94122" x="288.67941" style="text-align:center" transform="matrix(1.06667 0 0 1.06669 211.24324 9.92164)">
            <tspan y="361.94122" x="269.06882" font-size="15">Case 8</tspan>
        </text>
        <text style="text-align:center" x="354.30441" y="361.94122" transform="matrix(1.06667 0 0 1.06669 211.24324 9.92164)">
            <tspan x="334.69382" y="361.94122" font-size="15">Case 9</tspan>
        </text>
        <text y="361.94122" x="419.92941" style="text-align:center" transform="matrix(1.06667 0 0 1.06669 211.24324 9.92164)">
            <tspan y="361.94122" x="400.31882" font-size="15">Case 10</tspan>
        </text>
        <text style="text-align:center" x="485.55441" y="361.94122" transform="matrix(1.06667 0 0 1.06669 211.24324 9.92164)">
            <tspan x="465.94382" y="361.94122" font-size="15">Case 11</tspan>
        </text>
        <text style="text-align:center" x="288.67941" y="427.56491" transform="matrix(1.06667 0 0 1.06669 211.24324 9.92164)">
            <tspan x="269.06882" y="427.56491" font-size="15">Case 12</tspan>
        </text>
        <text y="427.56491" x="354.30441" style="text-align:center" transform="matrix(1.06667 0 0 1.06669 211.24324 9.92164)">
            <tspan y="427.56491" x="334.69382" font-size="15">Case 13</tspan>
        </text>
        <text style="text-align:center" x="419.92941" y="427.56491" transform="matrix(1.06667 0 0 1.06669 211.24324 9.92164)">
            <tspan x="400.31882" y="427.56491" font-size="15">Case 14</tspan>
        </text>
        <text y="427.56491" x="485.55441" style="text-align:center" transform="matrix(1.06667 0 0 1.06669 211.24324 9.92164)">
            <tspan y="427.56491" x="465.94382" font-size="15">Case 15</tspan>
        </text>
    </g>
    <g stroke-width="1" stroke="#000">
        <g stroke-linejoin="bevel" transform="matrix(1.06667 0 0 1.06669 211.24324 9.92164)">
            <path fill="none" stroke-width="1.5" d="M250.08446 176.31993h37.968765v37.967983H250.08446z"/>
            <circle cx="288.05322" cy="214.28792" r="3.04688" fill="#fff" stroke-width="1.5"/>
            <circle r="3.04688" cy="214.28792" cx="250.08446" fill="#fff" stroke-width="1.5"/>
            <circle cx="250.08446" cy="176.31993" r="3.04688" fill="#fff" stroke-width="1.5"/>
            <circle r="3.04688" cy="176.31993" cx="288.05322" fill="#fff" stroke-width="1.5"/>
        </g>
        <g stroke-linejoin="bevel" transform="matrix(1.06667 0 0 1.06669 211.24324 9.92164)">
            <path fill="none" stroke-width="1.5" d="M446.95944 373.19101h37.968765v37.967983H446.95944z"/>
            <circle cx="484.92822" cy="411.159" r="3.04688" stroke-width="1.5"/>
            <circle r="3.04688" cy="411.159" cx="446.95944" stroke-width="1.5"/>
            <circle cx="446.95944" cy="373.19101" r="3.04688" stroke-width="1.5"/>
            <circle r="3.04688" cy="373.19101" cx="484.92822" stroke-width="1.5"/>
        </g>
        <g transform="matrix(1.06667 0 0 1.06669 211.24324 9.92164)">
            <path fill="none" stroke-width="1.5" stroke-linejoin="bevel" d="M315.70944 176.31993h37.968765v37.967983H315.70944z"/>
            <circle r="3.04688" cy="214.28792" cx="353.67822" fill="#fff" stroke-width="1.5"/>
            <circle cx="315.70944" cy="214.28792" r="3.04688" stroke-width="1.5"/>
            <circle r="3.04688" cy="176.31993" cx="315.70944" fill="#fff" stroke-width="1.5"/>
            <circle cx="353.67822" cy="176.31993" r="3.04688" fill="#fff" stroke-width="1.5"/>
            <path d="M315.70944 195.30392l18.9844 18.984" fill="none" stroke-width="1.5"/>
        </g>
        <g transform="matrix(1.06667 0 0 1.06669 211.24324 9.92164)">
            <path fill="none" stroke-width="1.5" stroke-linejoin="bevel" d="M381.33444 176.31993h37.968765v37.967983H381.33444z"/>
            <circle cx="419.30322" cy="214.28792" r="3.04688" stroke-width="1.5"/>
            <circle r="3.04688" cy="214.28792" cx="381.33444" fill="#fff" stroke-width="1.5"/>
            <circle cx="381.33444" cy="176.31993" r="3.04688" fill="#fff" stroke-width="1.5"/>
            <circle r="3.04688" cy="176.31993" cx="419.30322" fill="#fff" stroke-width="1.5"/>
            <path d="M419.30322 195.30392l-18.98438 18.984" fill="none" stroke-width="1.5"/>
        </g>
        <g transform="matrix(1.06667 0 0 1.06669 211.24324 9.92164)">
            <path fill="none" stroke-width="1.5" stroke-linejoin="bevel" d="M446.95944 176.31993h37.968765v37.967983H446.95944z"/>
            <circle r="3.04688" cy="214.28792" cx="484.92822" stroke-width="1.5"/>
            <circle cx="446.95944" cy="214.28792" r="3.04688" stroke-width="1.5"/>
            <circle r="3.04688" cy="176.31993" cx="446.95944" fill="#fff" stroke-width="1.5"/>
            <circle cx="484.92822" cy="176.31993" r="3.04688" fill="#fff" stroke-width="1.5"/>
            <path d="M446.95944 195.30392h37.96879" fill="none" stroke-width="1.5"/>
        </g>
        <g transform="matrix(1.06667 0 0 1.06669 211.24324 9.92164)">
            <path fill="none" stroke-width="1.5" stroke-linejoin="bevel" d="M250.08446 241.94362h37.968765v37.967983H250.08446z"/>
            <circle r="3.04688" cy="279.91162" cx="288.05322" fill="#fff" stroke-width="1.5"/>
            <circle cx="250.08446" cy="279.91162" r="3.04688" fill="#fff" stroke-width="1.5"/>
            <circle r="3.04688" cy="241.94362" cx="250.08446" fill="#fff" stroke-width="1.5"/>
            <circle cx="288.05322" cy="241.94362" r="3.04688" stroke-width="1.5"/>
            <path d="M269.06884 241.94361l18.98438 18.98399" fill="none" stroke-width="1.5"/>
        </g>
        <g transform="matrix(1.06667 0 0 1.06669 211.24324 9.92164)">
            <path fill="none" stroke-width="1.5" stroke-linejoin="bevel" d="M315.70944 241.94362h37.968765v37.967983H315.70944z"/>
            <circle cx="353.67822" cy="279.91162" r="3.04688" fill="#fff" stroke-width="1.5"/>
            <circle r="3.04688" cy="279.91162" cx="315.70944" stroke-width="1.5"/>
            <circle cx="315.70944" cy="241.94362" r="3.04688" fill="#fff" stroke-width="1.5"/>
            <circle r="3.04688" cy="241.94362" cx="353.67822" stroke-width="1.5"/>
            <path d="M315.70944 260.9276l18.9844-18.98399M334.69384 279.91159l18.98438-18.98399" fill="none" stroke-width="1.5"/>
        </g>
        <g transform="matrix(1.06667 0 0 1.06669 211.24324 9.92164)">
            <path fill="none" stroke-width="1.5" stroke-linejoin="bevel" d="M381.33444 241.94362h37.968765v37.967983H381.33444z"/>
            <circle r="3.04688" cy="279.91162" cx="419.30322" stroke-width="1.5"/>
            <circle cx="381.33444" cy="279.91162" r="3.04688" fill="#fff" stroke-width="1.5"/>
            <circle r="3.04688" cy="241.94362" cx="381.33444" fill="#fff" stroke-width="1.5"/>
            <circle cx="419.30322" cy="241.94362" r="3.04688" stroke-width="1.5"/>
            <path d="M400.31884 241.94361v37.96798" fill="none" stroke-width="1.5"/>
        </g>
        <g transform="matrix(1.06667 0 0 1.06669 211.24324 9.92164)">
            <path fill="none" stroke-width="1.5" stroke-linejoin="bevel" d="M446.95944 241.94362h37.968765v37.967983H446.95944z"/>
            <circle cx="484.92822" cy="279.91162" r="3.04688" stroke-width="1.5"/>
            <circle r="3.04688" cy="279.91162" cx="446.95944" stroke-width="1.5"/>
            <circle cx="446.95944" cy="241.94362" r="3.04688" fill="#fff" stroke-width="1.5"/>
            <circle r="3.04688" cy="241.94362" cx="484.92822" stroke-width="1.5"/>
            <path d="M446.95944 260.9276l18.98439-18.98399" fill="none" stroke-width="1.5"/>
        </g>
        <g transform="matrix(1.06667 0 0 1.06669 211.24324 9.92164)">
            <path fill="none" stroke-width="1.5" stroke-linejoin="bevel" d="M250.08446 307.56732h37.968765v37.967983H250.08446z"/>
            <circle cx="288.05322" cy="345.53531" r="3.04688" fill="#fff" stroke-width="1.5"/>
            <circle r="3.04688" cy="345.53531" cx="250.08446" fill="#fff" stroke-width="1.5"/>
            <circle cx="250.08446" cy="307.56732" r="3.04688" stroke-width="1.5"/>
            <circle r="3.04688" cy="307.56732" cx="288.05322" fill="#fff" stroke-width="1.5"/>
            <path d="M250.08446 326.55132l18.98438-18.984" fill="none" stroke-width="1.5"/>
        </g>
        <g transform="matrix(1.06667 0 0 1.06669 211.24324 9.92164)">
            <path fill="none" stroke-width="1.5" stroke-linejoin="bevel" d="M315.70944 307.56732h37.968765v37.967983H315.70944z"/>
            <circle r="3.04688" cy="345.53531" cx="353.67822" fill="#fff" stroke-width="1.5"/>
            <circle cx="315.70944" cy="345.53531" r="3.04688" stroke-width="1.5"/>
            <circle r="3.04688" cy="307.56732" cx="315.70944" stroke-width="1.5"/>
            <circle cx="353.67822" cy="307.56732" r="3.04688" fill="#fff" stroke-width="1.5"/>
            <path d="M334.69384 307.56732v37.96799" fill="none" stroke-width="1.5"/>
        </g>
        <g transform="matrix(1.06667 0 0 1.06669 211.24324 9.92164)">
            <path fill="none" stroke-width="1.5" stroke-linejoin="bevel" d="M381.33444 307.56732h37.968765v37.967983H381.33444z"/>
            <circle cx="419.30322" cy="345.53531" r="3.04688" stroke-width="1.5"/>
            <circle r="3.04688" cy="345.53531" cx="381.33444" fill="#fff" stroke-width="1.5"/>
            <circle cx="381.33444" cy="307.56732" r="3.04688" stroke-width="1.5"/>
            <circle r="3.04688" cy="307.56732" cx="419.30322" fill="#fff" stroke-width="1.5"/>
            <path d="M400.31884 307.56732l18.98438 18.984M381.33444 326.55132l18.9844 18.98399" fill="none" stroke-width="1.5"/>
        </g>
        <g transform="matrix(1.06667 0 0 1.06669 211.24324 9.92164)">
            <path fill="none" stroke-width="1.5" stroke-linejoin="bevel" d="M446.95944 307.56732h37.968765v37.967983H446.95944z"/>
            <circle r="3.04688" cy="345.53531" cx="484.92822" stroke-width="1.5"/>
            <circle cx="446.95944" cy="345.53531" r="3.04688" stroke-width="1.5"/>
            <circle r="3.04688" cy="307.56732" cx="446.95944" stroke-width="1.5"/>
            <circle cx="484.92822" cy="307.56732" r="3.04688" fill="#fff" stroke-width="1.5"/>
            <path d="M465.94383 307.56732l18.9844 18.984" fill="none" stroke-width="1.5"/>
        </g>
        <g transform="matrix(1.06667 0 0 1.06669 211.24324 9.92164)">
            <path fill="none" stroke-width="1.5" stroke-linejoin="bevel" d="M250.08446 373.19101h37.968765v37.967983H250.08446z"/>
            <circle r="3.04688" cy="411.159" cx="288.05322" fill="#fff" stroke-width="1.5"/>
            <circle cx="250.08446" cy="411.159" r="3.04688" fill="#fff" stroke-width="1.5"/>
            <circle r="3.04688" cy="373.19101" cx="250.08446" stroke-width="1.5"/>
            <circle cx="288.05322" cy="373.19101" r="3.04688" stroke-width="1.5"/>
            <path d="M250.08446 392.175h37.96876" fill="none" stroke-width="1.5"/>
        </g>
        <g transform="matrix(1.06667 0 0 1.06669 211.24324 9.92164)">
            <path fill="none" stroke-width="1.5" stroke-linejoin="bevel" d="M315.70944 373.19101h37.968765v37.967983H315.70944z"/>
            <circle cx="353.67822" cy="411.159" r="3.04688" fill="#fff" stroke-width="1.5"/>
            <circle r="3.04688" cy="411.159" cx="315.70944" stroke-width="1.5"/>
            <circle cx="315.70944" cy="373.19101" r="3.04688" stroke-width="1.5"/>
            <circle r="3.04688" cy="373.19101" cx="353.67822" stroke-width="1.5"/>
            <path d="M334.69384 411.159l18.98438-18.984" fill="none" stroke-width="1.5"/>
        </g>
        <g transform="matrix(1.06667 0 0 1.06669 211.24324 9.92164)">
            <path fill="none" stroke-width="1.5" stroke-linejoin="bevel" d="M381.33444 373.19101h37.968765v37.967983H381.33444z"/>
            <circle r="3.04688" cy="411.159" cx="419.30322" stroke-width="1.5"/>
            <circle cx="381.33444" cy="411.159" r="3.04688" fill="#fff" stroke-width="1.5"/>
            <circle r="3.04688" cy="373.19101" cx="381.33444" stroke-width="1.5"/>
            <circle cx="419.30322" cy="373.19101" r="3.04688" stroke-width="1.5"/>
            <path d="M381.33444 392.175l18.9844 18.984" fill="none" stroke-width="1.5"/>
        </g>
    </g>
    <g stroke-width="1">
        <path fill="none" stroke="#b5e61d" stroke-width="1.87498" d="M-230.32504 463.85397h19.508093v16.563477h-19.508093z" transform="matrix(1.06667 0 0 1.06669 393.203519 -341.15312)"/>
        <text x="-236.23555" y="490.37427" font-weight="400" letter-spacing="0" word-spacing="0" transform="matrix(1.06667 0 0 1.06669 393.203519 -341.15312)">
            <tspan x="-236.23555" y="490.37427" font-size="12.5">1</tspan>
        </text>
        <text x="-212.56372" y="490.37427" font-weight="400" letter-spacing="0" word-spacing="0" transform="matrix(1.06667 0 0 1.06669 393.203519 -341.15312)">
            <tspan x="-212.56372" y="490.37427" font-size="12.5">2</tspan>
        </text>
        <text x="-212.73584" y="462.12759" font-weight="400" letter-spacing="0" word-spacing="0" transform="matrix(1.06667 0 0 1.06669 393.203519 -341.15312)">
            <tspan x="-212.73584" y="462.12759" font-size="12.5">4</tspan>
        </text>
        <text x="-236.12935" y="462.21548" font-weight="400" letter-spacing="0" word-spacing="0" transform="matrix(1.06667 0 0 1.06669 393.203519 -341.15312)">
            <tspan x="-236.12935" y="462.21548" font-size="12.5">8</tspan>
        </text>
    </g>
    <path d="M188.49086 194.1475124v5.2917756h-30.9125v10.608543h30.9125v5.289695l32.25209-10.593972zM188.49086 306.65864v5.29177h-30.9125v10.60854h30.9125v5.2897l32.25209-10.59398zM188.49086 419.16976v5.29177h-30.9125v10.60855h30.9125v5.28969l32.25209-10.59397zM259.38845 57.13501v5.29177h-30.9125v10.60855h30.9125v5.28969l32.25209-10.59397zM519.67409 57.13501v5.29177h-30.912513v10.60855h30.912513v5.28969l32.25208-10.59397zM434.110551 303.9368v9.64622h27.607692v19.33801h-27.607692v9.64242l-28.8040643-19.31142z" fill="none" stroke="#000" stroke-width="2.5"/>
    <text x="-384.44778" y="-.18331581" font-weight="400" font-size="12.8001" letter-spacing="0" word-spacing="0" transform="translate(408.01993 184.46329)">
        <tspan x="-384.44778" y="-.18331581" style="line-height:1.25" font-size="13.3335">Give every cell a</tspan><tspan x="-384.44778" y="16.483517" style="line-height:1.25" font-size="13.3335">number based on</tspan><tspan x="-384.44778" y="33.150349" style="line-height:1.25" font-size="13.3335">which corners are</tspan><tspan x="-384.44778" y="49.817181" style="line-height:1.25" font-size="13.3335">true/false</tspan>
    </text>
    <text x="-389.08075" y="112.32668" font-weight="400" font-size="12.8001" letter-spacing="0" word-spacing="0" transform="translate(408.01993 184.46329)">
        <tspan x="-389.08075" y="112.32668" style="line-height:1.25" font-size="13.3335">Look up the contour</tspan><tspan x="-389.08075" y="128.99352" style="line-height:1.25" font-size="13.3335">lines in the database</tspan><tspan x="-389.08075" y="145.66034" style="line-height:1.25" font-size="13.3335">and put them in</tspan><tspan x="-389.08075" y="162.32718" style="line-height:1.25" font-size="13.3335">the cells</tspan>
    </text>
    <text x="-389.32278" y="206.83519" font-weight="400" font-size="12.8001" letter-spacing="0" word-spacing="0" transform="translate(408.01993 184.46329)">
        <tspan x="-389.32278" y="206.83519" style="line-height:1.25" font-size="13.3335">Look at the original</tspan><tspan x="-389.32278" y="223.50203" style="line-height:1.25" font-size="13.3335">values and use linear</tspan><tspan x="-389.32278" y="240.16885" style="line-height:1.25" font-size="13.3335">interpolation to</tspan><tspan x="-389.32278" y="256.83569" style="line-height:1.25" font-size="13.3335">determine a</tspan><tspan x="-389.32278" y="273.50253" style="line-height:1.25" font-size="13.3335">more accurate position</tspan><tspan x="-389.32278" y="290.16934" style="line-height:1.25" font-size="13.3335">of all the line end-points</tspan>
    </text>
    <text x="-188.94797" y="-153.7765" font-weight="400" font-size="12.8001" letter-spacing="0" word-spacing="0" transform="translate(408.01993 184.46329)">
        <tspan x="-188.94797" y="-153.7765" style="line-height:1.25" font-size="13.3335">Threshold</tspan><tspan x="-188.94797" y="-137.10968" style="line-height:1.25" font-size="13.3335">with iso-value</tspan>
    </text>
    <text x="71.833969" y="-153.7765" font-weight="400" font-size="12.8001" letter-spacing="0" word-spacing="0" transform="translate(408.01993 184.46329)">
        <tspan x="71.833969" y="-153.7765" style="line-height:1.25" font-size="13.3335">Binary image</tspan><tspan x="71.833969" y="-137.10968" style="line-height:1.25" font-size="13.3335">to cells</tspan>
    </text>
    <text style="text-align:center" x="268.66849" y="-12.626033" font-weight="400" font-size="12.8001" letter-spacing="0" word-spacing="0" text-anchor="middle" transform="translate(408.01993 184.46329)">
        <tspan x="195.23007" y="-12.626033" style="line-height:1.25;text-align:center" font-size="13.3335">Look-up table contour lines</tspan>
    </text>
</svg>
